<?xml version="1.0" encoding="UTF-8"?>
<svg id="Layer_2" data-name="Layer 2" xmlns="http://www.w3.org/2000/svg" viewBox="0 0 808.84 227.15">
  <defs>
    <style>
      .cls-1 {
        letter-spacing: -.04em;
      }

      .cls-2 {
        fill: #3aa163;
      }

      .cls-2, .cls-3 {
        stroke-width: 0px;
      }

      .cls-3, .cls-4, .cls-5 {
        fill: #43266c;
      }

      .cls-4 {
        font-size: 33.85px;
      }

      .cls-4, .cls-5 {
        font-family: Chivo-Bold, Chivo;
        font-weight: 700;
      }

      .cls-5 {
        font-size: 33.85px;
      }
    </style>
  </defs>
  <g id="Camada_1" data-name="Camada 1">
    <g>
      <path class="cls-3" d="m162.17,33.07v113.23h-31.14V33.07h31.14Z"/>
      <path class="cls-3" d="m242.14,69.48c6.34,3.41,11.32,8.15,14.94,14.23,3.62,6.08,5.43,13,5.43,20.76v3.3c0,7.86-1.81,14.84-5.43,20.92-3.62,6.08-8.6,10.8-14.94,14.15-6.34,3.36-13.45,5.03-21.31,5.03h-5.03c-7.86,0-14.97-1.7-21.31-5.11-6.34-3.41-11.32-8.15-14.94-14.23-3.62-6.08-5.43-13-5.43-20.76v-3.3c0-7.76,1.81-14.68,5.43-20.76,3.62-6.08,8.6-10.82,14.94-14.23,6.34-3.41,13.45-5.11,21.31-5.11h5.03c7.86,0,14.96,1.71,21.31,5.11Zm-31.53,17.14c-2.1,2.15-3.15,4.75-3.15,7.78v23.43c0,3.04,1.05,5.64,3.15,7.78,2.1,2.15,4.66,3.22,7.71,3.22s5.61-1.07,7.71-3.22c2.1-2.15,3.15-4.74,3.15-7.78v-23.43c0-3.04-1.05-5.63-3.15-7.78-2.1-2.15-4.67-3.22-7.71-3.22s-5.61,1.08-7.71,3.22Z"/>
      <path class="cls-3" d="m329.89,66.8c5.29,1.63,9.72,4.06,13.29,7.31,3.56,3.25,5.35,7.18,5.35,11.79,0,.94-.05,1.81-.16,2.59-.11.79-.16,1.29-.16,1.49h-25.79c0-2.52-1.13-4.32-3.38-5.43-2.26-1.1-4.8-1.65-7.63-1.65-7.76,0-11.64,1.52-11.64,4.56,0,1.89,1.18,3.17,3.54,3.85,2.36.68,6.26,1.34,11.72,1.97,7.13.84,13.03,1.89,17.69,3.15,4.66,1.26,8.75,3.7,12.27,7.31,3.51,3.62,5.27,8.89,5.27,15.81,0,9.86-3.59,17.04-10.77,21.54-7.18,4.51-16.02,6.76-26.5,6.76h-8.18c-5.87,0-11.46-.92-16.75-2.75-5.3-1.83-9.62-4.64-12.97-8.41-3.36-3.77-5.03-8.39-5.03-13.84v-1.42c0-.63.05-1.1.16-1.42h25.48v.63c0,3.04,1.36,5.17,4.09,6.37,2.73,1.21,5.87,1.81,9.44,1.81,3.15,0,6.16-.31,9.04-.94,2.88-.63,4.32-1.94,4.32-3.93s-1.21-3.38-3.62-4.17c-2.41-.79-6.4-1.6-11.95-2.44-6.71-.84-12.42-1.94-17.14-3.3-4.72-1.36-8.78-3.85-12.19-7.47-3.41-3.62-5.11-8.67-5.11-15.18,0-6.08,1.86-11.14,5.58-15.18,3.72-4.03,8.41-7.02,14.08-8.96,5.66-1.94,11.43-2.91,17.3-2.91h4.88c5.03,0,10.19.81,15.49,2.44Z"/>
      <path class="cls-3" d="m398.06,65.94h18.87v22.33h-18.87v29.72c0,4.19.81,7.05,2.44,8.57,1.62,1.52,3.8,2.28,6.53,2.28,1.26,0,2.91-.18,4.95-.55,2.04-.37,3.64-.81,4.8-1.34v17.61c-2.41,1.05-5.77,1.89-10.06,2.52-4.3.63-7.97.94-11.01.94-9.23,0-16.33-1.68-21.31-5.03-4.98-3.35-7.47-9.07-7.47-17.14v-37.59h-8.81v-22.33h10.06l10.85-25.63h19.03v25.63Z"/>
      <path class="cls-3" d="m501.78,41.96c6.87,3.41,12.29,8.55,16.28,15.41,3.98,6.87,5.98,15.28,5.98,25.24h-30.98v-5.5c0-4.82-1.49-8.65-4.48-11.48-2.99-2.83-6.74-4.25-11.24-4.25h-.79c-4.4,0-8.13,1.52-11.17,4.56s-4.56,6.76-4.56,11.17v30.35c0,4.4,1.52,8.13,4.56,11.17,3.04,3.04,6.76,4.56,11.17,4.56h2.2c4.51,0,8.26-1.39,11.24-4.17,2.99-2.78,4.48-6.63,4.48-11.56v-5.19h29.57c0,9.23-1.91,17.3-5.74,24.22-3.83,6.92-9.1,12.22-15.81,15.88-6.71,3.67-14.31,5.5-22.8,5.5h-4.4c-9.33,0-17.8-1.89-25.4-5.66-7.6-3.77-13.6-9.22-18.01-16.36-4.4-7.13-6.61-15.52-6.61-25.16v-16.67c0-9.12,2.23-17.27,6.68-24.45,4.46-7.18,10.4-12.76,17.85-16.75,7.44-3.98,15.52-5.98,24.22-5.98h4.4c8.7,0,16.49,1.71,23.35,5.11Z"/>
      <path class="cls-3" d="m599.91,69.48c6.34,3.41,11.32,8.15,14.94,14.23,3.62,6.08,5.43,13,5.43,20.76v3.3c0,7.86-1.81,14.84-5.43,20.92-3.62,6.08-8.6,10.8-14.94,14.15-6.34,3.36-13.45,5.03-21.31,5.03h-5.03c-7.86,0-14.97-1.7-21.31-5.11-6.34-3.41-11.32-8.15-14.94-14.23-3.62-6.08-5.43-13-5.43-20.76v-3.3c0-7.76,1.81-14.68,5.43-20.76,3.62-6.08,8.6-10.82,14.94-14.23,6.34-3.41,13.45-5.11,21.31-5.11h5.03c7.86,0,14.96,1.71,21.31,5.11Zm-31.53,17.14c-2.1,2.15-3.15,4.75-3.15,7.78v23.43c0,3.04,1.05,5.64,3.15,7.78,2.1,2.15,4.66,3.22,7.71,3.22s5.61-1.07,7.71-3.22c2.1-2.15,3.15-4.74,3.15-7.78v-23.43c0-3.04-1.05-5.63-3.15-7.78-2.1-2.15-4.67-3.22-7.71-3.22s-5.61,1.08-7.71,3.22Z"/>
      <path class="cls-3" d="m686.17,146.3l-2.83-9.28c-5.77,7.23-12.53,10.85-20.29,10.85-6.5,0-12.35-1.52-17.54-4.56-5.19-3.04-9.28-7.63-12.27-13.76-2.99-6.13-4.48-13.66-4.48-22.57v-1.73c0-8.91,1.34-16.43,4.01-22.57,2.67-6.13,6.29-10.72,10.85-13.76,4.56-3.04,9.72-4.56,15.49-4.56,9.85,0,16.77,3.3,20.76,9.91v-41.2h31.14v113.23h-24.85Zm-22.96-59.05c-1.89,2.15-2.83,4.74-2.83,7.78v22.8c0,3.04.94,5.64,2.83,7.78,1.89,2.15,4.19,3.22,6.92,3.22s5.03-1.07,6.92-3.22c1.89-2.15,2.83-4.74,2.83-7.78v-22.8c0-3.04-.94-5.63-2.83-7.78-1.89-2.15-4.19-3.22-6.92-3.22s-5.03,1.08-6.92,3.22Z"/>
      <path class="cls-3" d="m790.83,69.01c5.82,3.09,10.27,7.37,13.37,12.82,3.09,5.45,4.64,11.69,4.64,18.71v9.75h-52.37v7.55c0,3.57,1.13,6.29,3.38,8.18,2.25,1.89,5.16,2.83,8.73,2.83s6.47-1.13,8.41-3.38c1.94-2.25,2.91-5.37,2.91-9.36h28.78c0,5.98-1.55,11.38-4.64,16.2-3.09,4.82-7.6,8.62-13.53,11.4-5.92,2.78-12.92,4.17-20.99,4.17h-2.36c-8.39,0-15.91-1.55-22.57-4.64-6.66-3.09-11.9-7.6-15.73-13.52-3.83-5.92-5.74-12.97-5.74-21.15v-4.88c0-8.18,1.81-15.23,5.43-21.15,3.62-5.92,8.67-10.43,15.18-13.52,6.5-3.09,13.94-4.64,22.33-4.64h3.93c8.07,0,15.02,1.55,20.84,4.64Zm-31.22,17.61c-2.1,2.15-3.15,4.75-3.15,7.78v2.2h21.7v-2.2c0-3.04-1.05-5.63-3.15-7.78-2.1-2.15-4.67-3.22-7.71-3.22s-5.61,1.08-7.71,3.22Z"/>
    </g>
    <path class="cls-2" d="m114.13,0h-23.95l-11.91,20.83c-1.19,2.08-3.4,3.37-5.8,3.37h-6.13L.64,139.1c-1.83,3.21.48,7.2,4.17,7.2h35.76L119.14,8.62c2.19-3.84-.58-8.62-5-8.62Z"/>
    <path class="cls-2" d="m74.8,0l-8.89,15.59h8.73l7.71-13.52c.38-.67.61-1.37.71-2.07h-8.26Z"/>
    <g>
      <text class="cls-4" transform="translate(263.81 218.68)"><tspan x="0" y="0">DEVE</tspan><tspan class="cls-1" x="85.47" y="0">L</tspan><tspan x="102.06" y="0">OPER</tspan></text>
      <text class="cls-5" transform="translate(483.48 218.68)"><tspan x="0" y="0">FREELANCE</tspan></text>
      <circle class="cls-3" cx="468.92" cy="208.65" r="4.5"/>
    </g>
  </g>
</svg>